HIERARCHY
ROOT Hips
{
 OFFSET 0.000000 0.000000 0.000000
 CHANNELS 6 Xposition Yposition Zposition Yrotation Xrotation Zrotation
 JOINT Chest
 {
  OFFSET 0.000000 9.585900 0.002600
  CHANNELS 3 Yrotation Xrotation Zrotation
  JOINT Chest2
  {
   OFFSET 0.000000 9.601200 -0.005300
   CHANNELS 3 Yrotation Xrotation Zrotation
   JOINT Chest3
   {
    OFFSET 0.000000 9.561800 0.000000
    CHANNELS 3 Yrotation Xrotation Zrotation
    JOINT Chest4
    {
     OFFSET 0.000000 9.552100 0.000000
     CHANNELS 3 Yrotation Xrotation Zrotation
     JOINT Neck
     {
      OFFSET 0.000000 14.453000 0.000000
      CHANNELS 3 Yrotation Xrotation Zrotation
      JOINT Head
      {
       OFFSET 0.000000 8.936500 -0.011300
       CHANNELS 3 Yrotation Xrotation Zrotation
       End Site
       {
        OFFSET 0.000000 17.073600 -0.006000
       }
      }
     }
     JOINT RightCollar
     {
      OFFSET -2.921100 9.558500 0.000000
      CHANNELS 3 Yrotation Xrotation Zrotation
      JOINT RightShoulder
      {
       OFFSET -13.519700 0.000000 0.000000
       CHANNELS 3 Yrotation Xrotation Zrotation
       JOINT RightElbow
       {
        OFFSET 0.000000 -29.696600 0.000000
        CHANNELS 3 Yrotation Xrotation Zrotation
        JOINT RightWrist
        {
         OFFSET 0.000000 -24.004700 0.000000
         CHANNELS 3 Yrotation Xrotation Zrotation
         End Site
         {
          OFFSET 0.000000 -17.728500 0.000000
         }
        }
       }
      }
     }
     JOINT LeftCollar
     {
      OFFSET 2.921100 9.558500 0.000000
      CHANNELS 3 Yrotation Xrotation Zrotation
      JOINT LeftShoulder
      {
       OFFSET 13.519700 0.000000 0.000000
       CHANNELS 3 Yrotation Xrotation Zrotation
       JOINT LeftElbow
       {
        OFFSET 0.000000 -29.696600 0.000000
        CHANNELS 3 Yrotation Xrotation Zrotation
        JOINT LeftWrist
        {
         OFFSET 0.000000 -24.004700 0.000000
         CHANNELS 3 Yrotation Xrotation Zrotation
         End Site
         {
          OFFSET 0.000000 -17.728500 0.000000
         }
        }
       }
      }
     }
    }
   }
  }
 }
 JOINT RightHip
 {
  OFFSET -7.771700 -0.012900 -0.001300
  CHANNELS 3 Yrotation Xrotation Zrotation
  JOINT RightKnee
  {
   OFFSET 0.000000 -40.869800 0.001200
   CHANNELS 3 Yrotation Xrotation Zrotation
   JOINT RightAnkle
   {
    OFFSET 0.000000 -39.717900 0.002100
    CHANNELS 3 Yrotation Xrotation Zrotation
    JOINT RightToe
    {
     OFFSET 0.000000 -4.965400 11.033500
     CHANNELS 3 Yrotation Xrotation Zrotation
     End Site
     {
      OFFSET 0.000000 -1.423100 5.872300
     }
    }
   }
  }
 }
 JOINT LeftHip
 {
  OFFSET 7.771700 -0.012900 -0.001300
  CHANNELS 3 Yrotation Xrotation Zrotation
  JOINT LeftKnee
  {
   OFFSET 0.000000 -40.869800 0.001200
   CHANNELS 3 Yrotation Xrotation Zrotation
   JOINT LeftAnkle
   {
    OFFSET 0.000000 -39.717900 0.002100
    CHANNELS 3 Yrotation Xrotation Zrotation
    JOINT LeftToe
    {
     OFFSET 0.000000 -4.965400 11.033500
     CHANNELS 3 Yrotation Xrotation Zrotation
     End Site
     {
      OFFSET 0.000000 -1.423100 5.872300
     }
    }
   }
  }
 }
}
MOTION
Frames: 13
Frame Time: 0.008333
0.000000 85.388000 0.000000 0.000000 -5.767877 0.000000 0.000000 11.653817 0.000000 0.000000 -5.885947 0.000000 0.000000 -0.000000 0.000000 0.000000 -0.000000 0.000000 0.000000 12.528835 0.000000 0.000000 0.711642 0.000000 0.000000 -0.000000 0.000000 0.000000 0.000000 -90.000000 0.000000 -2.309062 0.000000 0.000000 2.309062 0.000000 0.000000 -0.000000 0.000000 0.000000 -0.000000 90.000000 0.000000 -2.309062 0.000000 0.000000 2.309062 0.000000 0.000000 8.520406 0.000000 0.000000 1.905762 0.000000 -0.000000 -4.658285 0.000000 0.000000 -0.000000 0.000000 0.000000 8.520406 0.000000 0.000000 1.905762 0.000000 -0.000000 -4.658285 0.000000 0.000000 -0.000000 0.000000
-188.381239 48.989587 11.009238 174.641874 -32.538130 -3.743683 0.350929 19.595828 2.887928 -0.008240 2.417203 0.325663 -0.003930 3.969826 0.533087 0.249626 16.945686 2.307710 4.782474 16.748416 -2.952694 9.863609 -4.276967 -7.086145 -1.820204 -2.910227 -2.773916 5.141904 -7.095502 -13.362932 -38.172744 -45.961742 91.323687 4.281200 5.963651 -14.361501 -1.227194 -2.345188 1.467611 -7.531450 -2.472556 13.154603 67.246697 -67.284385 -105.811326 3.315363 9.085901 8.289874 3.105988 -52.933441 -6.336887 -179.112145 82.816511 -167.477875 -28.825766 -1.609706 -1.114882 -0.122037 -11.191442 1.168231 -16.161848 -53.584720 21.321744 -74.577081 67.289127 -78.936621 30.450366 7.575044 13.513873 0.084529 -0.196486 0.041758
-188.381240 48.990355 11.009687 174.648410 -32.553176 -3.743184 0.350701 19.602787 2.876010 -0.013173 2.420654 0.331333 -0.003419 3.965859 0.527800 0.257529 16.944879 2.294736 4.823790 16.764206 -2.943159 9.934172 -4.246907 -7.087882 -1.821167 -2.891387 -2.756338 5.133320 -7.103082 -13.361007 -38.176352 -45.964762 91.320736 4.279281 5.962769 -14.358732 -1.236800 -2.335009 1.468027 -7.536611 -2.493342 13.152788 67.286855 -67.284388 -105.833220 3.307677 9.124452 8.288327 3.118791 -52.916924 -6.341898 -179.218721 82.819978 -167.586839 -28.833602 -1.612452 -1.109470 -0.131137 -11.184069 1.172874 -16.159913 -53.569392 21.316738 -74.560444 67.283250 -78.930999 30.461435 7.577504 13.523685 0.075955 -0.199282 0.041024
-188.380505 48.990400 11.012086 174.648237 -32.561027 -3.745572 0.358283 19.604249 2.872172 -0.011777 2.419451 0.329359 -0.002483 3.965748 0.526289 0.265982 16.939567 2.282672 4.875441 16.783979 -2.933756 10.026766 -4.207799 -7.096409 -1.834547 -2.875418 -2.731144 5.127008 -7.098390 -13.373114 -38.191826 -45.966529 91.337795 4.277790 5.958337 -14.370822 -1.255512 -2.323087 1.472683 -7.551819 -2.531909 13.127918 67.165008 -67.309948 -105.687561 3.302609 9.120878 8.275619 3.120251 -52.909473 -6.335993 -179.417805 82.824860 -167.791644 -28.821701 -1.613516 -1.115341 -0.131235 -11.178551 1.178764 -16.163823 -53.560182 21.324449 -74.556278 67.279241 -78.929972 30.462641 7.577638 13.518925 0.075731 -0.197884 0.043828
-188.381320 48.989898 11.015652 174.652198 -32.564038 -3.743594 0.363016 19.598322 2.860767 -0.004295 2.411447 0.318358 -0.007393 3.973126 0.532985 0.266246 16.942119 2.289015 4.904597 16.794501 -2.932530 10.185235 -4.148244 -7.138510 -1.842599 -2.865889 -2.722035 5.124410 -7.089363 -13.386092 -38.211431 -45.978097 91.343428 4.285940 5.954421 -14.395316 -1.267992 -2.317694 1.459450 -7.554438 -2.545953 13.128002 67.162263 -67.314597 -105.678448 3.295624 9.130739 8.261823 3.132657 -52.909836 -6.338886 -179.521351 82.828777 -167.903029 -28.827419 -1.606825 -1.111692 -0.121175 -11.175279 1.181223 -16.163673 -53.556925 21.323724 -74.541390 67.262631 -78.920279 30.473467 7.584158 13.517426 0.068791 -0.198226 0.043537
-188.382662 48.989006 11.020262 174.657271 -32.563116 -3.742582 0.367966 19.585460 2.847271 -0.003683 2.409167 0.317031 -0.006423 3.974758 0.535547 0.264398 16.946096 2.293319 5.003356 16.817851 -2.955820 10.320964 -4.085945 -7.158453 -1.860276 -2.858297 -2.713464 5.127092 -7.078633 -13.398498 -38.239558 -46.019930 91.323067 4.266861 5.958268 -14.357915 -1.276949 -2.309789 1.457173 -7.561741 -2.560011 13.115214 67.201274 -67.316086 -105.719325 3.285808 9.144221 8.254398 3.137744 -52.915383 -6.334472 -179.585048 82.832563 -167.980200 -28.839800 -1.598486 -1.104574 -0.121675 -11.170863 1.184850 -16.165113 -53.557048 21.323916 -74.511993 67.255169 -78.894584 30.475527 7.594621 13.521329 0.066901 -0.198872 0.043658
-188.384528 48.988448 11.024592 174.662330 -32.566211 -3.741890 0.369246 19.577015 2.832596 -0.003384 2.407045 0.315601 -0.003832 3.973496 0.537816 0.268095 16.925142 2.265652 5.126950 16.871146 -2.950279 10.489875 -4.007313 -7.185920 -1.885396 -2.826513 -2.675152 5.127050 -7.070660 -13.407835 -38.251997 -46.045020 91.317364 4.267685 5.952555 -14.339014 -1.292500 -2.272499 1.486305 -7.570613 -2.573034 13.104619 67.190926 -67.328990 -105.697444 3.272148 9.123640 8.222473 3.137539 -52.915157 -6.331709 -179.532503 82.835701 -167.935694 -28.849153 -1.595688 -1.104698 -0.122311 -11.164383 1.190488 -16.163621 -53.553499 21.319567 -74.487779 67.249012 -78.872739 30.479294 7.601174 13.526667 0.063836 -0.197756 0.041544
-188.386266 48.988393 11.028387 174.668454 -32.574110 -3.746242 0.371727 19.570308 2.821202 -0.005361 2.409855 0.318176 -0.002070 3.969345 0.531974 0.268222 16.935684 2.278265 5.243304 16.900450 -2.984879 10.717110 -3.902314 -7.237525 -1.904125 -2.829296 -2.671210 5.121995 -7.070120 -13.421059 -38.256238 -46.067663 91.306277 4.261707 5.947314 -14.303466 -1.307876 -2.271823 1.466908 -7.567552 -2.574346 13.112879 67.246934 -67.331740 -105.747563 3.255248 9.110722 8.198966 3.129343 -52.909494 -6.323579 -179.487012 82.838960 -167.897212 -28.853544 -1.589273 -1.102530 -0.121619 -11.162827 1.191570 -16.168613 -53.544858 21.318353 -74.473140 67.250281 -78.857137 30.477681 7.609216 13.525959 0.063468 -0.196639 0.037428
-188.389178 48.988471 11.031821 174.674614 -32.583024 -3.747389 0.372546 19.562317 2.806116 -0.005489 2.406920 0.316815 0.003008 3.942651 0.510053 0.268543 16.954406 2.286564 5.386971 16.957046 -2.994981 10.982377 -3.770730 -7.305475 -1.953680 -2.812836 -2.639154 5.147223 -7.073612 -13.438402 -38.266024 -46.094463 91.295010 4.228922 5.953774 -14.257460 -1.343410 -2.268384 1.461271 -7.538787 -2.547030 13.142375 67.325309 -67.335232 -105.825942 3.244987 9.084554 8.180031 3.127879 -52.902891 -6.322230 -179.421887 82.840261 -167.841067 -28.849853 -1.581593 -1.097763 -0.153622 -11.161086 1.198452 -16.171213 -53.536799 21.311893 -74.458873 67.252318 -78.843224 30.480534 7.621491 13.520061 0.061377 -0.202193 0.042255
-188.392139 48.989071 11.034352 174.691777 -32.596036 -3.757171 0.360402 19.558198 2.793336 -0.002188 2.404196 0.314660 0.000831 3.950437 0.517134 0.256805 16.897278 2.243562 5.564058 17.064533 -2.985359 11.288046 -3.608110 -7.391415 -1.973553 -2.739190 -2.595554 5.123474 -7.124972 -13.482899 -38.261499 -46.097618 91.302156 4.285035 5.924975 -14.150976 -1.363446 -2.222877 1.485586 -7.528550 -2.533569 13.141565 67.360712 -67.352093 -105.858037 3.242875 9.048632 8.172790 3.114941 -52.891299 -6.307221 -179.269967 82.849072 -167.691373 -28.914429 -1.571654 -1.084003 -0.089049 -11.160329 1.185432 -16.188261 -53.523716 21.307016 -74.446418 67.265074 -78.829835 30.472630 7.627460 13.514409 0.064753 -0.199342 0.040350
-188.395061 48.989186 11.037649 174.702983 -32.601571 -3.767118 0.348791 19.544412 2.784605 0.001382 2.419208 0.322383 0.000499 3.942428 0.512191 0.253149 16.891180 2.241289 5.743666 17.136573 -3.022985 11.635685 -3.410020 -7.493679 -1.998722 -2.701060 -2.595590 5.135904 -7.160976 -13.487478 -38.301923 -46.175278 91.294561 4.324803 5.922903 -14.003725 -1.377565 -2.231457 1.481925 -7.525223 -2.520249 13.129136 67.379751 -67.373007 -105.875708 3.255339 8.999753 8.167092 3.105877 -52.885786 -6.302809 -179.209153 82.849602 -167.636774 -28.884938 -1.564059 -1.086944 -0.089013 -11.160729 1.189314 -16.212375 -53.517216 21.311771 -74.427843 67.279194 -78.812269 30.474992 7.639425 13.510083 0.061434 -0.201612 0.038709
-188.397921 48.989368 11.040758 174.699504 -32.606412 -3.771022 0.349105 19.526343 2.779469 -0.001058 2.417973 0.319354 -0.000281 3.936715 0.510551 0.256905 16.900995 2.245480 5.948054 17.223088 -3.064576 12.026262 -3.173688 -7.609354 -2.022258 -2.640534 -2.603426 5.107376 -7.245453 -13.504716 -38.339247 -46.276882 91.303516 4.352076 5.960342 -13.804909 -1.381839 -2.246241 1.481252 -7.555531 -2.535555 13.093001 67.318593 -67.392074 -105.789047 3.284349 8.945796 8.175237 3.106614 -52.881826 -6.301504 -179.210105 82.847757 -167.647219 -28.807741 -1.559032 -1.098836 -0.126648 -11.159778 1.203095 -16.225399 -53.511974 21.320535 -74.421087 67.290030 -78.804676 30.476378 7.652128 13.497585 0.061505 -0.206505 0.042687
-188.400381 48.990190 11.042824 174.697004 -32.615904 -3.777673 0.352349 19.523710 2.782746 -0.002623 2.402157 0.313760 -0.006525 3.902248 0.500333 0.247277 16.878301 2.235610 6.198200 17.389607 -3.082086 12.456125 -2.898848 -7.733746 -2.026361 -2.496493 -2.596642 5.076718 -7.338073 -13.515790 -38.426263 -46.462624 91.310080 4.395846 6.043223 -13.507919 -1.363414 -2.201737 1.497567 -7.603857 -2.548634 13.065610 67.284049 -67.371404 -105.758421 3.305706 8.897954 8.249203 3.092664 -52.870689 -6.287752 -179.181460 82.848245 -167.628769 -28.745947 -1.561279 -1.117592 -0.144411 -11.154125 1.218378 -16.233734 -53.501109 21.329607 -74.426904 67.292931 -78.809303 30.474905 7.653986 13.490867 0.065123 -0.201200 0.040303
